<?xml version="1.0" encoding="utf-8"?>
<!-- Generator: Adobe Illustrator 27.5.0, SVG Export Plug-In . SVG Version: 6.00 Build 0)  -->
<svg version="1.1" xmlns="http://www.w3.org/2000/svg" xmlns:xlink="http://www.w3.org/1999/xlink" x="0px" y="0px"
	 viewBox="0 0 500 500" style="enable-background:new 0 0 500 500;" xml:space="preserve">
<g id="BACKGROUND">
	<radialGradient id="SVGID_1_" cx="251" cy="249.375" r="352.2778" gradientUnits="userSpaceOnUse">
		<stop  offset="0" style="stop-color:#FFFFFF"/>
		<stop  offset="0.3538" style="stop-color:#FCFDFD"/>
		<stop  offset="0.6224" style="stop-color:#F2F5F7"/>
		<stop  offset="0.8623" style="stop-color:#E2E8EE"/>
		<stop  offset="1" style="stop-color:#D5DDE6"/>
	</radialGradient>
	<rect y="0.375" style="fill:url(#SVGID_1_);" width="500" height="500"/>
</g>
<g id="OBJECTS">
	<g>
		<g>
			<g>
				<g>
					
						<linearGradient id="SVGID_00000179611315129840539890000000911212412476932265_" gradientUnits="userSpaceOnUse" x1="98.2778" y1="368.6167" x2="403.3232" y2="368.6167">
						<stop  offset="0" style="stop-color:#FF5B85"/>
						<stop  offset="1" style="stop-color:#FF8A50"/>
					</linearGradient>
					<path style="fill:url(#SVGID_00000179611315129840539890000000911212412476932265_);" d="M121.065,371.067
						c1.051,1.407,1.578,3.033,1.578,4.878c0,3.624-1.189,6.285-3.567,7.984c-2.378,1.698-5.347,2.548-8.906,2.548H98.278v-35.723
						h10.484c3.786,0,6.762,0.77,8.931,2.306c2.167,1.537,3.252,3.762,3.252,6.674c0,1.779-0.373,3.341-1.116,4.684
						c-0.745,1.343-1.796,2.419-3.155,3.228C118.549,368.52,120.014,369.66,121.065,371.067z M105.315,365.364h4.271
						c1.293,0,2.297-0.396,3.009-1.189c0.711-0.792,1.068-1.771,1.068-2.936c0-1.197-0.405-2.111-1.214-2.743
						c-0.809-0.631-1.925-0.946-3.349-0.946h-3.786V365.364z M113.833,378.931c1.02-0.663,1.529-1.658,1.529-2.985
						c0-2.524-2.007-3.786-6.019-3.786h-4.029v7.766h4.514C111.479,379.925,112.814,379.594,113.833,378.931z"/>
					
						<linearGradient id="SVGID_00000036232198842394547340000002920847715790236574_" gradientUnits="userSpaceOnUse" x1="98.2778" y1="368.6167" x2="403.3232" y2="368.6167">
						<stop  offset="0" style="stop-color:#FF5B85"/>
						<stop  offset="1" style="stop-color:#FF8A50"/>
					</linearGradient>
					<path style="fill:url(#SVGID_00000036232198842394547340000002920847715790236574_);" d="M129.947,359.589
						c1.633-2.815,3.85-5.056,6.649-6.723c2.798-1.666,5.832-2.499,9.101-2.499c3.268,0,6.301,0.833,9.101,2.499
						c2.798,1.667,5.031,3.907,6.698,6.723c1.666,2.814,2.5,5.841,2.5,9.076c0,3.3-0.833,6.342-2.5,9.125
						c-1.667,2.783-3.899,4.991-6.698,6.625c-2.799,1.634-5.833,2.451-9.101,2.451c-3.301,0-6.342-0.817-9.125-2.451
						c-2.783-1.634-4.992-3.842-6.625-6.625c-1.634-2.783-2.451-5.825-2.451-9.125C127.496,365.43,128.313,362.403,129.947,359.589z
						 M136.257,374.392c0.987,1.748,2.33,3.131,4.028,4.15c1.699,1.02,3.583,1.528,5.655,1.528c2.006,0,3.834-0.509,5.484-1.528
						s2.944-2.395,3.883-4.126c0.938-1.73,1.408-3.647,1.408-5.751c0-2.136-0.485-4.077-1.456-5.824
						c-0.971-1.748-2.29-3.131-3.956-4.15c-1.667-1.019-3.519-1.528-5.558-1.528s-3.891,0.51-5.557,1.528
						c-1.667,1.02-2.985,2.402-3.956,4.15c-0.971,1.747-1.456,3.688-1.456,5.824C134.776,370.736,135.27,372.645,136.257,374.392z"
						/>
					
						<linearGradient id="SVGID_00000167369431888029057960000015603779287262719625_" gradientUnits="userSpaceOnUse" x1="98.2778" y1="368.6167" x2="403.3232" y2="368.6167">
						<stop  offset="0" style="stop-color:#FF5B85"/>
						<stop  offset="1" style="stop-color:#FF8A50"/>
					</linearGradient>
					<path style="fill:url(#SVGID_00000167369431888029057960000015603779287262719625_);" d="M171.299,359.589
						c1.633-2.815,3.85-5.056,6.649-6.723c2.798-1.666,5.832-2.499,9.101-2.499c3.268,0,6.301,0.833,9.101,2.499
						c2.798,1.667,5.031,3.907,6.698,6.723c1.666,2.814,2.5,5.841,2.5,9.076c0,3.3-0.833,6.342-2.5,9.125
						c-1.667,2.783-3.899,4.991-6.698,6.625c-2.799,1.634-5.833,2.451-9.101,2.451c-3.301,0-6.342-0.817-9.125-2.451
						c-2.783-1.634-4.992-3.842-6.625-6.625c-1.634-2.783-2.451-5.825-2.451-9.125C168.848,365.43,169.665,362.403,171.299,359.589z
						 M177.609,374.392c0.987,1.748,2.33,3.131,4.028,4.15c1.699,1.02,3.583,1.528,5.655,1.528c2.006,0,3.834-0.509,5.484-1.528
						s2.944-2.395,3.883-4.126c0.938-1.73,1.408-3.647,1.408-5.751c0-2.136-0.485-4.077-1.456-5.824
						c-0.971-1.748-2.29-3.131-3.956-4.15c-1.667-1.019-3.519-1.528-5.558-1.528s-3.891,0.51-5.557,1.528
						c-1.667,1.02-2.985,2.402-3.956,4.15c-0.971,1.747-1.456,3.688-1.456,5.824C176.128,370.736,176.622,372.645,177.609,374.392z"
						/>
					
						<linearGradient id="SVGID_00000144333967094347179120000012753928873729892480_" gradientUnits="userSpaceOnUse" x1="98.2778" y1="368.6167" x2="403.3232" y2="368.6167">
						<stop  offset="0" style="stop-color:#FF5B85"/>
						<stop  offset="1" style="stop-color:#FF8A50"/>
					</linearGradient>
					<path style="fill:url(#SVGID_00000144333967094347179120000012753928873729892480_);" d="M219.325,365.268l1.067-1.359
						l11.649-13.153h9.125l-14.755,16.017l14.804,19.706h-8.931l-11.018-15.24l-1.748,1.747v13.493h-7.135v-35.723h7.135v12.717
						L219.325,365.268z"/>
					
						<linearGradient id="SVGID_00000133489840520229263830000014653652535106776482_" gradientUnits="userSpaceOnUse" x1="98.2778" y1="368.6167" x2="403.3232" y2="368.6167">
						<stop  offset="0" style="stop-color:#FF5B85"/>
						<stop  offset="1" style="stop-color:#FF8A50"/>
					</linearGradient>
					<path style="fill:url(#SVGID_00000133489840520229263830000014653652535106776482_);" d="M265.579,352.017v32.18h18.88v2.281
						H263.2v-34.461H265.579z"/>
					
						<linearGradient id="SVGID_00000054235104487307095750000007678549486906221447_" gradientUnits="userSpaceOnUse" x1="98.2778" y1="368.6167" x2="403.3232" y2="368.6167">
						<stop  offset="0" style="stop-color:#FF5B85"/>
						<stop  offset="1" style="stop-color:#FF8A50"/>
					</linearGradient>
					<path style="fill:url(#SVGID_00000054235104487307095750000007678549486906221447_);" d="M292.662,360.486
						c1.585-2.701,3.721-4.854,6.407-6.455c2.685-1.602,5.613-2.402,8.784-2.402s6.116,0.801,8.834,2.402s4.869,3.754,6.455,6.455
						c1.585,2.702,2.378,5.639,2.378,8.81c0,3.172-0.793,6.107-2.378,8.81c-1.586,2.702-3.737,4.837-6.455,6.406
						c-2.718,1.57-5.663,2.354-8.834,2.354c-3.203,0-6.147-0.761-8.833-2.281c-2.687-1.521-4.813-3.624-6.383-6.31
						s-2.354-5.679-2.354-8.979C290.284,366.125,291.076,363.188,292.662,360.486z M294.749,376.965
						c1.359,2.329,3.187,4.182,5.484,5.557c2.298,1.376,4.821,2.063,7.572,2.063c2.782,0,5.347-0.68,7.692-2.039
						c2.346-1.358,4.198-3.211,5.558-5.558c1.359-2.345,2.038-4.909,2.038-7.692c0-2.782-0.688-5.347-2.063-7.693
						c-1.376-2.346-3.228-4.214-5.558-5.605c-2.329-1.391-4.87-2.087-7.62-2.087c-2.783,0-5.339,0.703-7.668,2.111
						c-2.33,1.407-4.158,3.293-5.485,5.654c-1.327,2.362-1.989,4.919-1.989,7.669S293.391,374.635,294.749,376.965z"/>
					
						<linearGradient id="SVGID_00000090266329828878176500000007026770728607939228_" gradientUnits="userSpaceOnUse" x1="98.2778" y1="368.6167" x2="403.3232" y2="368.6167">
						<stop  offset="0" style="stop-color:#FF5B85"/>
						<stop  offset="1" style="stop-color:#FF8A50"/>
					</linearGradient>
					<path style="fill:url(#SVGID_00000090266329828878176500000007026770728607939228_);" d="M355.54,386.041
						c-2.022,0.55-3.907,0.825-5.654,0.825c-3.527,0-6.634-0.761-9.318-2.281c-2.687-1.521-4.766-3.592-6.237-6.213
						c-1.473-2.621-2.208-5.549-2.208-8.785c0-3.43,0.792-6.512,2.378-9.246c1.585-2.733,3.721-4.869,6.407-6.406
						c2.685-1.537,5.63-2.306,8.833-2.306c3.462,0,6.617,0.842,9.465,2.523l-0.874,2.136c-1.165-0.68-2.492-1.229-3.979-1.65
						c-1.489-0.42-2.945-0.631-4.368-0.631c-2.881,0-5.502,0.672-7.863,2.015c-2.362,1.343-4.215,3.188-5.558,5.533
						s-2.014,4.975-2.014,7.887c0,2.848,0.639,5.42,1.917,7.717c1.277,2.298,3.073,4.102,5.388,5.412
						c2.313,1.311,4.975,1.966,7.983,1.966c1.392,0,2.831-0.17,4.32-0.51c1.487-0.34,2.75-0.801,3.786-1.383v-9.562h-7.767v-2.281
						h10.145v13.25C359.156,384.827,357.563,385.491,355.54,386.041z"/>
					
						<linearGradient id="SVGID_00000126284044618802421380000001880617720969710228_" gradientUnits="userSpaceOnUse" x1="98.2778" y1="368.6167" x2="403.3232" y2="368.6167">
						<stop  offset="0" style="stop-color:#FF5B85"/>
						<stop  offset="1" style="stop-color:#FF8A50"/>
					</linearGradient>
					<path style="fill:url(#SVGID_00000126284044618802421380000001880617720969710228_);" d="M370.465,360.486
						c1.585-2.701,3.721-4.854,6.407-6.455c2.685-1.602,5.613-2.402,8.784-2.402s6.116,0.801,8.834,2.402s4.869,3.754,6.455,6.455
						c1.585,2.702,2.378,5.639,2.378,8.81c0,3.172-0.793,6.107-2.378,8.81c-1.586,2.702-3.737,4.837-6.455,6.406
						c-2.718,1.57-5.663,2.354-8.834,2.354c-3.203,0-6.147-0.761-8.833-2.281c-2.687-1.521-4.813-3.624-6.383-6.31
						s-2.354-5.679-2.354-8.979C368.087,366.125,368.879,363.188,370.465,360.486z M372.552,376.965
						c1.359,2.329,3.187,4.182,5.484,5.557c2.298,1.376,4.821,2.063,7.572,2.063c2.782,0,5.347-0.68,7.692-2.039
						c2.346-1.358,4.198-3.211,5.558-5.558c1.359-2.345,2.038-4.909,2.038-7.692c0-2.782-0.688-5.347-2.063-7.693
						c-1.376-2.346-3.228-4.214-5.558-5.605c-2.329-1.391-4.87-2.087-7.62-2.087c-2.783,0-5.339,0.703-7.668,2.111
						c-2.33,1.407-4.158,3.293-5.485,5.654c-1.327,2.362-1.989,4.919-1.989,7.669S371.193,374.635,372.552,376.965z"/>
				</g>
			</g>
			
				<text transform="matrix(1 0 0 1 152.9001 410.4349)" style="fill:#B3B3C6; font-family:'JosefinSans-Regular'; font-size:15.9181px; letter-spacing:1;">YOUR SLOGAN HERE</text>
			<g>
				<g>
					<g>
						<g>
							
								<linearGradient id="SVGID_00000129923834835104254340000015785220880474245557_" gradientUnits="userSpaceOnUse" x1="141.7235" y1="236.6602" x2="246.4984" y2="236.6602">
								<stop  offset="0" style="stop-color:#FF7530"/>
								<stop  offset="1" style="stop-color:#FF3B6E"/>
							</linearGradient>
							<path style="fill:url(#SVGID_00000129923834835104254340000015785220880474245557_);" d="M142.99,272.386l-1.267-129.275
								l2.044-0.792c1.744-0.676,3.685-0.637,5.4,0.11l95.616,41.645c1.042,0.458,1.715,1.489,1.715,2.627v132.392v7.649
								c0,2.072-5.11,5.444-7.006,4.609l-94.787-44.97c-1.042-0.458-1.715-1.489-1.715-2.627V272.386z"/>
							
								<linearGradient id="SVGID_00000127764673120139929210000017772509190217688469_" gradientUnits="userSpaceOnUse" x1="157.1394" y1="296.6281" x2="225.9088" y2="177.5159">
								<stop  offset="0" style="stop-color:#FF5B85"/>
								<stop  offset="1" style="stop-color:#FF8A50"/>
							</linearGradient>
							<path style="fill:url(#SVGID_00000127764673120139929210000017772509190217688469_);" d="M139.486,274.723V146.049
								c0-2.072,2.129-3.461,4.025-2.627l97.768,42.988c1.042,0.458,1.715,1.489,1.715,2.627v132.392v7.65
								c0,2.072-2.129,3.461-4.025,2.627l-87.361-38.412C144.242,290.055,139.486,282.769,139.486,274.723L139.486,274.723z"/>
							<g style="opacity:0.53;">
								
									<linearGradient id="SVGID_00000115485771006873888600000012446274172824688527_" gradientUnits="userSpaceOnUse" x1="157.065" y1="296.7536" x2="225.9805" y2="177.3885">
									<stop  offset="0" style="stop-color:#FF5B85"/>
									<stop  offset="1" style="stop-color:#FF8A50"/>
								</linearGradient>
								<path style="fill:url(#SVGID_00000115485771006873888600000012446274172824688527_);" d="M139.486,274.723l-0.073-127.28
									c0.021-0.665-0.054-1.321,0.066-1.999c0.126-0.67,0.52-1.278,1.049-1.699c0.532-0.426,1.212-0.653,1.894-0.643
									c0.696,0.007,1.313,0.341,1.911,0.598l7.284,3.198l14.568,6.395l29.136,12.791l29.136,12.791l14.568,6.395l1.821,0.799
									c0.6,0.232,1.268,0.579,1.674,1.149c0.422,0.552,0.638,1.261,0.613,1.945l0.001,1.989l0.005,7.955l-0.072,127.28
									l-0.001,1.989c0.004,0.649,0.034,1.364-0.294,1.976c-0.575,1.243-2.091,1.954-3.413,1.563
									c-2.47-1.011-4.866-2.121-7.302-3.177l-14.561-6.412l-29.121-12.824l-29.121-12.824l-7.28-3.206
									c-2.445-1.031-4.684-2.544-6.564-4.414C141.641,285.307,139.487,280.03,139.486,274.723z M139.486,274.723
									c0.007,5.307,2.167,10.579,5.937,14.321c1.881,1.865,4.117,3.375,6.562,4.401l7.284,3.198l29.136,12.791l29.136,12.791
									l14.568,6.396c2.429,1.05,4.853,2.167,7.287,3.162c1.259,0.372,2.704-0.309,3.249-1.492
									c0.311-0.583,0.282-1.251,0.277-1.914l-0.001-1.989l-0.072-127.28l0.005-7.955c-0.08-1.305,0.28-2.741-0.553-3.766
									c-0.384-0.524-0.936-0.817-1.564-1.065l-1.82-0.801l-14.561-6.412l-29.121-12.824l-29.121-12.824l-14.561-6.412l-7.28-3.206
									c-0.61-0.263-1.199-0.581-1.853-0.587c-0.646-0.01-1.292,0.204-1.798,0.608c-0.503,0.4-0.878,0.976-0.998,1.612
									c-0.114,0.629-0.045,1.311-0.065,1.969L139.486,274.723z"/>
							</g>
							<g>
								
									<linearGradient id="SVGID_00000175319736556967395780000004345664631004765619_" gradientUnits="userSpaceOnUse" x1="162.1281" y1="154.3579" x2="240.6207" y2="154.3579">
									<stop  offset="0" style="stop-color:#FFC766"/>
									<stop  offset="1" style="stop-color:#FF7530"/>
								</linearGradient>
								<path style="fill:url(#SVGID_00000175319736556967395780000004345664631004765619_);" d="M163.144,140.038l76.906,34.582
									c0.46,0.207,0.805-0.448,0.375-0.711l-65.359-39.853l-12.927,4.218C162.066,138.967,162.387,139.697,163.144,140.038z"/>
								
									<linearGradient id="SVGID_00000125583698006579191250000017025008631290691503_" gradientUnits="userSpaceOnUse" x1="183.2168" y1="149.1012" x2="241.4768" y2="149.1012">
									<stop  offset="0" style="stop-color:#FFC766"/>
									<stop  offset="1" style="stop-color:#FF7530"/>
								</linearGradient>
								<path style="fill:url(#SVGID_00000125583698006579191250000017025008631290691503_);" d="M241.364,169.716
									c0.076,0.052,0.156-0.057,0.085-0.115l-49.272-41.13l-8.177,2.668L241.364,169.716z"/>
								
									<linearGradient id="SVGID_00000122696545507377706740000015399837845534264218_" gradientUnits="userSpaceOnUse" x1="194.6718" y1="143.3004" x2="247.9781" y2="143.3004" gradientTransform="matrix(0.9835 0.181 -0.181 0.9835 30.419 -37.0703)">
									<stop  offset="0" style="stop-color:#FFC766"/>
									<stop  offset="1" style="stop-color:#FF7530"/>
								</linearGradient>
								<path style="fill:url(#SVGID_00000122696545507377706740000015399837845534264218_);" d="M208.23,123.234l-8.386,2.736
									l45.188,40.281c0.065,0.065,0.164-0.028,0.104-0.097L208.23,123.234z"/>
							</g>
						</g>
					</g>
					
						<polyline style="fill:none;stroke:#FFFFFF;stroke-width:0.7697;stroke-linecap:round;stroke-linejoin:round;stroke-miterlimit:10;" points="
						146.686,150.978 236.575,190.669 236.575,317.914 219,309.999 					"/>
				</g>
				<g>
					<g>
						<g>
							
								<linearGradient id="SVGID_00000175308728073854194750000007038394770547077018_" gradientUnits="userSpaceOnUse" x1="43.6681" y1="236.6602" x2="148.443" y2="236.6602" gradientTransform="matrix(-1 0 0 1 402.3327 0)">
								<stop  offset="0" style="stop-color:#FF7530"/>
								<stop  offset="1" style="stop-color:#FF3B6E"/>
							</linearGradient>
							<path style="fill:url(#SVGID_00000175308728073854194750000007038394770547077018_);" d="M357.398,272.386l1.267-129.275
								l-2.044-0.792c-1.744-0.676-3.685-0.637-5.4,0.11l-95.616,41.645c-1.042,0.458-1.715,1.489-1.715,2.627v132.392v7.649
								c0,2.072,5.109,5.444,7.006,4.609l94.787-44.97c1.042-0.458,1.715-1.489,1.715-2.627V272.386z"/>
							
								<linearGradient id="SVGID_00000175302165794461727660000012686854175564712623_" gradientUnits="userSpaceOnUse" x1="59.084" y1="296.6281" x2="127.8535" y2="177.5159" gradientTransform="matrix(-1 0 0 1 402.3327 0)">
								<stop  offset="0" style="stop-color:#FF5B85"/>
								<stop  offset="1" style="stop-color:#FF8A50"/>
							</linearGradient>
							<path style="fill:url(#SVGID_00000175302165794461727660000012686854175564712623_);" d="M360.902,274.723V146.049
								c0-2.072-2.129-3.461-4.025-2.627l-97.768,42.988c-1.042,0.458-1.715,1.489-1.715,2.627v132.392v7.65
								c0,2.072,2.129,3.461,4.026,2.627l87.361-38.412C356.146,290.055,360.902,282.769,360.902,274.723L360.902,274.723z"/>
							<g style="opacity:0.53;">
								
									<linearGradient id="SVGID_00000019656917296483853750000016799055625129256637_" gradientUnits="userSpaceOnUse" x1="343.323" y1="296.7536" x2="274.4076" y2="177.3885">
									<stop  offset="0" style="stop-color:#FF5B85"/>
									<stop  offset="1" style="stop-color:#FF8A50"/>
								</linearGradient>
								<path style="fill:url(#SVGID_00000019656917296483853750000016799055625129256637_);" d="M360.902,274.723l-0.073-127.28
									c-0.021-0.658,0.049-1.34-0.065-1.969c-0.12-0.636-0.494-1.212-0.998-1.612c-0.506-0.404-1.152-0.618-1.798-0.608
									c-0.654,0.006-1.242,0.324-1.853,0.587l-7.28,3.206l-14.561,6.412l-29.121,12.824l-29.121,12.824l-14.561,6.412l-1.82,0.801
									c-0.628,0.247-1.18,0.541-1.564,1.065c-0.833,1.025-0.473,2.461-0.553,3.766l0.005,7.955l-0.072,127.28l-0.001,1.989
									c-0.004,0.663-0.034,1.331,0.277,1.914c0.545,1.183,1.99,1.864,3.249,1.492c2.434-0.995,4.858-2.112,7.287-3.162
									l14.568-6.396l29.136-12.791l29.136-12.791l7.284-3.198c2.444-1.027,4.681-2.536,6.562-4.401
									C358.735,285.302,360.895,280.03,360.902,274.723z M360.902,274.723c-0.001,5.307-2.155,10.584-5.924,14.334
									c-1.88,1.869-4.118,3.383-6.564,4.414l-7.28,3.206l-29.121,12.824l-29.121,12.824l-14.561,6.412
									c-2.436,1.056-4.832,2.166-7.302,3.177c-1.322,0.392-2.838-0.319-3.413-1.563c-0.328-0.612-0.297-1.327-0.294-1.976
									l-0.001-1.989l-0.072-127.28l0.004-7.955l0.001-1.989c-0.025-0.683,0.191-1.393,0.613-1.945
									c0.406-0.57,1.074-0.917,1.674-1.149l1.821-0.799l14.568-6.395l29.136-12.791l29.136-12.791l14.568-6.395l7.284-3.198
									c0.598-0.256,1.216-0.591,1.911-0.598c0.682-0.01,1.362,0.217,1.894,0.643c0.53,0.421,0.923,1.03,1.049,1.699
									c0.12,0.678,0.045,1.335,0.066,1.999L360.902,274.723z"/>
							</g>
							<g>
								
									<linearGradient id="SVGID_00000145743923759160732750000011766800895229311123_" gradientUnits="userSpaceOnUse" x1="64.0727" y1="154.3579" x2="142.5654" y2="154.3579" gradientTransform="matrix(-1 0 0 1 402.3327 0)">
									<stop  offset="0" style="stop-color:#FFC766"/>
									<stop  offset="1" style="stop-color:#FF7530"/>
								</linearGradient>
								<path style="fill:url(#SVGID_00000145743923759160732750000011766800895229311123_);" d="M337.244,140.038l-76.906,34.582
									c-0.46,0.207-0.805-0.448-0.374-0.711l65.359-39.853l12.927,4.218C338.322,138.967,338.001,139.697,337.244,140.038z"/>
								
									<linearGradient id="SVGID_00000035507921235819453550000003277724630994229941_" gradientUnits="userSpaceOnUse" x1="85.1615" y1="149.1012" x2="143.4215" y2="149.1012" gradientTransform="matrix(-1 0 0 1 402.3327 0)">
									<stop  offset="0" style="stop-color:#FFC766"/>
									<stop  offset="1" style="stop-color:#FF7530"/>
								</linearGradient>
								<path style="fill:url(#SVGID_00000035507921235819453550000003277724630994229941_);" d="M259.024,169.716
									c-0.076,0.052-0.156-0.057-0.085-0.115l49.272-41.13l8.177,2.668L259.024,169.716z"/>
								
									<linearGradient id="SVGID_00000086662555985349135670000015531951185892713904_" gradientUnits="userSpaceOnUse" x1="98.2375" y1="161.0479" x2="151.5439" y2="161.0479" gradientTransform="matrix(-0.9835 0.181 0.181 0.9835 371.9137 -37.0703)">
									<stop  offset="0" style="stop-color:#FFC766"/>
									<stop  offset="1" style="stop-color:#FF7530"/>
								</linearGradient>
								<path style="fill:url(#SVGID_00000086662555985349135670000015531951185892713904_);" d="M292.158,123.234l8.386,2.736
									l-45.188,40.281c-0.065,0.065-0.164-0.028-0.104-0.097L292.158,123.234z"/>
							</g>
						</g>
					</g>
					
						<polyline style="fill:none;stroke:#FFFFFF;stroke-width:0.7697;stroke-linecap:round;stroke-linejoin:round;stroke-miterlimit:10;" points="
						353.702,150.978 263.813,190.669 263.813,317.914 282.001,309.999 					"/>
				</g>
				
					<linearGradient id="SVGID_00000104682847336420095280000014313320261415445647_" gradientUnits="userSpaceOnUse" x1="274.0656" y1="122.3851" x2="225.934" y2="122.3851">
					<stop  offset="0" style="stop-color:#FFC766"/>
					<stop  offset="1" style="stop-color:#FF7530"/>
				</linearGradient>
				<path style="fill:url(#SVGID_00000104682847336420095280000014313320261415445647_);" d="M274.066,103.838
					c0,13.291-24.066,61.94-24.066,61.151c0,0-24.066-47.86-24.066-61.151c0-13.291,10.775-24.066,24.066-24.066
					S274.066,90.547,274.066,103.838z"/>
				
					<linearGradient id="SVGID_00000166665008237447688850000003540538991850657157_" gradientUnits="userSpaceOnUse" x1="272.4174" y1="121.2171" x2="227.5822" y2="121.2171">
					<stop  offset="0" style="stop-color:#FF7530"/>
					<stop  offset="1" style="stop-color:#FFC766"/>
				</linearGradient>
				<path style="fill:url(#SVGID_00000166665008237447688850000003540538991850657157_);" d="M272.417,103.94
					c0,12.381-22.418,57.698-22.418,56.963c0,0-22.418-44.582-22.418-56.963S237.619,81.522,250,81.522
					S272.417,91.559,272.417,103.94z"/>
				<circle style="fill:#FFFFFF;" cx="250" cy="104.28" r="12.257"/>
			</g>
		</g>
		<g>
			<g>
				<g>
					
						<path style="fill:none;stroke:#FFFFFF;stroke-width:0.7697;stroke-linecap:round;stroke-linejoin:round;stroke-miterlimit:10;" d="
						M173.726,229.29c13.636,21.527,36.19,36.845,62.469,40.755"/>
				</g>
				
					<path style="fill:none;stroke:#FFFFFF;stroke-width:0.7697;stroke-linecap:round;stroke-linejoin:round;stroke-miterlimit:10;" d="
					M169.047,233.715c0.904-2.222,2.732-4.053,5.183-4.882c2.233-0.756,4.56-0.536,6.52,0.429"/>
			</g>
			<g>
				<g>
					
						<path style="fill:none;stroke:#FFFFFF;stroke-width:0.7697;stroke-linecap:round;stroke-linejoin:round;stroke-miterlimit:10;" d="
						M326.273,229.29c-13.636,21.527-36.19,36.845-62.469,40.755"/>
				</g>
				
					<path style="fill:none;stroke:#FFFFFF;stroke-width:0.7697;stroke-linecap:round;stroke-linejoin:round;stroke-miterlimit:10;" d="
					M330.952,233.715c-0.904-2.222-2.732-4.053-5.182-4.882c-2.233-0.756-4.56-0.536-6.52,0.429"/>
			</g>
		</g>
	</g>
</g>
</svg>
